<?xml version="1.0" ?><!DOCTYPE svg  PUBLIC '-//W3C//DTD SVG 1.1//EN'  'http://www.w3.org/Graphics/SVG/1.1/DTD/svg11.dtd'><svg enable-background="new 0 0 500 500" height="500px" id="_jewel" version="1.1" viewBox="0 0 500 500" width="500px" xml:space="preserve" xmlns="http://www.w3.org/2000/svg" xmlns:xlink="http://www.w3.org/1999/xlink"><g><polygon fill="#ADE6FF" points="63.004,207.874 249.289,392.56 436.378,207.874  "/><polygon fill="#FFFFFF" opacity="0.5" points="156.146,207.874 249.289,392.56 342.438,207.874  "/><polygon fill="#D0EFFC" points="63.004,207.874 156.146,114.731 342.438,114.731 436.378,207.874  "/><rect fill="#FFFFFF" height="93.143" opacity="0.2" width="186.291" x="156.146" y="114.731"/><polygon fill="#FFFFFF" opacity="0.4" points="156.146,114.731 249.289,207.874 342.438,114.731  "/><polygon fill="#FFFFFF" opacity="0.3" points="156.146,207.874 249.289,114.731 342.438,207.874  "/><g><polygon fill="#FFFFFF" points="176.097,151.32 173.565,138.002 160.175,135.886 173.492,133.355 175.608,119.966     178.138,133.284 191.525,135.398 178.209,137.929   "/><polygon fill="#FFFFFF" points="184.3,143.333 175.887,137.962 167.649,143.593 173.384,135.681 167.404,127.954 175.814,133.325     184.056,127.693 178.321,135.604   "/></g><g><polygon fill="#FFFFFF" points="158.439,217.343 156.91,209.298 148.82,208.02 156.865,206.491 158.144,198.402 159.672,206.448     167.76,207.725 159.715,209.253   "/><polygon fill="#FFFFFF" points="163.395,212.518 158.312,209.273 153.336,212.675 156.8,207.896 153.187,203.227 158.268,206.472     163.247,203.07 159.783,207.849   "/></g></g></svg>