<?xml version="1.0" ?><!DOCTYPE svg  PUBLIC '-//W3C//DTD SVG 1.1//EN'  'http://www.w3.org/Graphics/SVG/1.1/DTD/svg11.dtd'><svg enable-background="new 0 0 500 500" height="500px" id="stone" version="1.1" viewBox="0 0 500 500" width="500px" xml:space="preserve" xmlns="http://www.w3.org/2000/svg" xmlns:xlink="http://www.w3.org/1999/xlink"><g><g><polygon fill="#906FBC" points="61.848,203.127 249.316,388.977 437.592,203.127   "/><polygon fill="#BCA9D7" opacity="0.5" points="155.582,203.127 249.316,388.977 343.05,203.127   "/><polygon fill="#BCA9D7" points="61.848,203.127 155.582,109.393 343.05,109.393 437.592,203.127   "/><rect fill="#FFFFFF" height="93.734" opacity="0.2" width="187.468" x="155.582" y="109.393"/><polygon fill="#FFFFFF" opacity="0.4" points="155.582,109.393 249.316,203.127 343.05,109.393   "/><polygon fill="#FFFFFF" opacity="0.3" points="155.582,203.127 249.316,109.393 343.05,203.127   "/></g><g><polygon fill="#FFFFFF" points="155.778,216.925 153.785,206.438 143.241,204.773 153.727,202.78 155.394,192.237     157.385,202.724 167.927,204.388 157.441,206.381   "/><polygon fill="#FFFFFF" points="162.237,210.636 155.613,206.407 149.127,210.84 153.642,204.611 148.933,198.527     155.555,202.756 162.045,198.322 157.529,204.55   "/></g><g><polygon fill="#FFFFFF" points="194.687,155.193 193.345,148.132 186.245,147.01 193.306,145.668 194.428,138.569 195.769,145.63     202.867,146.751 195.807,148.093   "/><polygon fill="#FFFFFF" points="199.036,150.958 194.576,148.11 190.208,151.096 193.249,146.901 190.078,142.804     194.537,145.652 198.907,142.667 195.866,146.86   "/></g></g></svg>