<?xml version="1.0" ?><!DOCTYPE svg  PUBLIC '-//W3C//DTD SVG 1.1//EN'  'http://www.w3.org/Graphics/SVG/1.1/DTD/svg11.dtd'><svg enable-background="new 0 0 500 500" height="500px" id="stone" version="1.1" viewBox="0 0 500 500" width="500px" xml:space="preserve" xmlns="http://www.w3.org/2000/svg" xmlns:xlink="http://www.w3.org/1999/xlink"><g><g><polygon fill="#E6E5E5" points="62.5,203.604 249.93,389.419 438.171,203.604   "/><polygon fill="#F0EFEF" opacity="0.5" points="156.215,203.604 249.93,389.419 343.645,203.604   "/><polygon fill="#F0EFEF" points="62.5,203.604 156.215,109.889 343.645,109.889 438.171,203.604   "/><rect fill="#FFFFFF" height="93.715" opacity="0.2" width="187.43" x="156.215" y="109.889"/><polygon fill="#FFFFFF" opacity="0.4" points="156.215,109.889 249.93,203.604 343.645,109.889   "/><polygon fill="#FFFFFF" opacity="0.3" points="156.215,203.604 249.93,109.889 343.645,203.604   "/></g><g><polygon fill="#FFFFFF" points="158.626,214.875 157.206,205.302 149.688,203.78 157.163,201.957 158.352,192.332     159.772,201.908 167.291,203.43 159.815,205.247   "/><polygon fill="#FFFFFF" points="163.23,209.134 158.511,205.271 153.883,209.32 157.102,203.631 153.742,198.076 158.468,201.936     163.09,197.887 159.877,203.576   "/></g><g><polygon fill="#FFFFFF" points="202.169,168.018 200.749,158.444 193.23,156.923 200.706,155.1 201.895,145.475 203.315,155.051     210.834,156.572 203.358,158.39   "/><polygon fill="#FFFFFF" points="206.773,162.276 202.054,158.414 197.426,162.463 200.645,156.773 197.285,151.219     202.011,155.079 206.633,151.03 203.42,156.719   "/></g></g></svg>